<svg width="104" height="104" viewBox="0 0 104 104" fill="none" xmlns="http://www.w3.org/2000/svg">
<rect x="51.5552" width="3.70853" height="27.814" fill="#13CE66"/>
<rect x="38.1118" y="1.88721" width="3.70853" height="18.5427" transform="rotate(-15 38.1118 1.88721)" fill="#13CE66"/>
<rect x="25.6147" y="7.18896" width="3.70853" height="27.814" transform="rotate(-30 25.6147 7.18896)" fill="#13CE66"/>
<rect x="14.916" y="15.5449" width="3.70853" height="18.5427" transform="rotate(-45 14.916 15.5449)" fill="#13CE66"/>
<rect x="6.74438" y="26.3853" width="3.70853" height="27.814" transform="rotate(-60 6.74438 26.3853)" fill="#13CE66"/>
<rect x="1.65674" y="38.9712" width="3.70853" height="18.5427" transform="rotate(-75 1.65674 38.9712)" fill="#13CE66"/>
<rect y="52.4448" width="3.70853" height="27.814" transform="rotate(-90 0 52.4448)" fill="#13CE66"/>
<rect x="1.88696" y="65.8882" width="3.70853" height="18.5427" transform="rotate(-105 1.88696 65.8882)" fill="#13CE66"/>
<rect x="7.18896" y="78.3853" width="3.70853" height="27.814" transform="rotate(-120 7.18896 78.3853)" fill="#13CE66"/>
<rect x="15.5449" y="89.084" width="3.70853" height="18.5427" transform="rotate(-135 15.5449 89.084)" fill="#13CE66"/>
<rect x="26.385" y="97.2554" width="3.70853" height="27.814" transform="rotate(-150 26.385 97.2554)" fill="#13CE66"/>
<rect x="38.9709" y="102.343" width="3.70853" height="18.5427" transform="rotate(-165 38.9709 102.343)" fill="#13CE66"/>
<rect x="52.4446" y="104" width="3.70853" height="27.814" transform="rotate(180 52.4446 104)" fill="#13CE66"/>
<rect x="65.8882" y="102.113" width="3.70853" height="18.5427" transform="rotate(165 65.8882 102.113)" fill="#13CE66"/>
<rect x="78.385" y="96.811" width="3.70853" height="27.814" transform="rotate(150 78.385 96.811)" fill="#13CE66"/>
<rect x="89.084" y="88.4551" width="3.70853" height="18.5427" transform="rotate(135 89.084 88.4551)" fill="#13CE66"/>
<rect x="97.2556" y="77.6147" width="3.70853" height="27.814" transform="rotate(120 97.2556 77.6147)" fill="#13CE66"/>
<rect x="102.343" y="65.0288" width="3.70853" height="18.5427" transform="rotate(105 102.343 65.0288)" fill="#13CE66"/>
<rect x="104" y="51.5552" width="3.70853" height="27.814" transform="rotate(90 104 51.5552)" fill="#13CE66"/>
<rect x="102.113" y="38.1118" width="3.70853" height="18.5427" transform="rotate(75 102.113 38.1118)" fill="#13CE66"/>
<rect x="96.811" y="25.6147" width="3.70853" height="27.814" transform="rotate(60 96.811 25.6147)" fill="#13CE66"/>
<rect x="88.4551" y="14.916" width="3.70853" height="18.5427" transform="rotate(45 88.4551 14.916)" fill="#13CE66"/>
<rect x="77.6147" y="6.74414" width="3.70853" height="27.814" transform="rotate(30 77.6147 6.74414)" fill="#13CE66"/>
<rect x="65.0291" y="1.65674" width="3.70853" height="18.5427" transform="rotate(15 65.0291 1.65674)" fill="#13CE66"/>
</svg>
