<svg width="56" height="56" viewBox="0 0 56 56" fill="none" xmlns="http://www.w3.org/2000/svg">
<rect x="27.7605" width="1.9969" height="14.9768" fill="#13CE66"/>
<rect x="20.5215" y="1.01611" width="1.9969" height="9.98451" transform="rotate(-15 20.5215 1.01611)" fill="#13CE66"/>
<rect x="13.7925" y="3.87109" width="1.9969" height="14.9768" transform="rotate(-30 13.7925 3.87109)" fill="#13CE66"/>
<rect x="8.03174" y="8.37012" width="1.9969" height="9.98451" transform="rotate(-45 8.03174 8.37012)" fill="#13CE66"/>
<rect x="3.63147" y="14.2075" width="1.9969" height="14.9768" transform="rotate(-60 3.63147 14.2075)" fill="#13CE66"/>
<rect x="0.891968" y="20.9844" width="1.9969" height="9.98451" transform="rotate(-75 0.891968 20.9844)" fill="#13CE66"/>
<rect x="-0.00012207" y="28.2393" width="1.9969" height="14.9768" transform="rotate(-90 -0.00012207 28.2393)" fill="#13CE66"/>
<rect x="1.01587" y="35.478" width="1.9969" height="9.98451" transform="rotate(-105 1.01587 35.478)" fill="#13CE66"/>
<rect x="3.87097" y="42.2075" width="1.9969" height="14.9768" transform="rotate(-120 3.87097 42.2075)" fill="#13CE66"/>
<rect x="8.37036" y="47.9683" width="1.9969" height="9.98451" transform="rotate(-135 8.37036 47.9683)" fill="#13CE66"/>
<rect x="14.2074" y="52.3687" width="1.9969" height="14.9768" transform="rotate(-150 14.2074 52.3687)" fill="#13CE66"/>
<rect x="20.9844" y="55.1079" width="1.9969" height="9.98451" transform="rotate(-165 20.9844 55.1079)" fill="#13CE66"/>
<rect x="28.2393" y="56" width="1.9969" height="14.9768" transform="rotate(180 28.2393 56)" fill="#13CE66"/>
<rect x="35.4783" y="54.9839" width="1.9969" height="9.98451" transform="rotate(165 35.4783 54.9839)" fill="#13CE66"/>
<rect x="42.2073" y="52.1289" width="1.9969" height="14.9768" transform="rotate(150 42.2073 52.1289)" fill="#13CE66"/>
<rect x="47.968" y="47.6299" width="1.9969" height="9.98451" transform="rotate(135 47.968 47.6299)" fill="#13CE66"/>
<rect x="52.3684" y="41.7925" width="1.9969" height="14.9768" transform="rotate(120 52.3684 41.7925)" fill="#13CE66"/>
<rect x="55.1079" y="35.0156" width="1.9969" height="9.98451" transform="rotate(105 55.1079 35.0156)" fill="#13CE66"/>
<rect x="56" y="27.7607" width="1.9969" height="14.9768" transform="rotate(90 56 27.7607)" fill="#13CE66"/>
<rect x="54.9839" y="20.522" width="1.9969" height="9.98452" transform="rotate(75 54.9839 20.522)" fill="#13CE66"/>
<rect x="52.1289" y="13.7925" width="1.9969" height="14.9768" transform="rotate(60 52.1289 13.7925)" fill="#13CE66"/>
<rect x="47.6294" y="8.03174" width="1.9969" height="9.98452" transform="rotate(45 47.6294 8.03174)" fill="#13CE66"/>
<rect x="41.7925" y="3.63135" width="1.9969" height="14.9768" transform="rotate(30 41.7925 3.63135)" fill="#13CE66"/>
<rect x="35.0154" y="0.89209" width="1.9969" height="9.98452" transform="rotate(15 35.0154 0.89209)" fill="#13CE66"/>
</svg>
