<svg width="56" height="56" viewBox="0 0 56 56" fill="none" xmlns="http://www.w3.org/2000/svg">
<rect x="27.7607" width="1.9969" height="14.9768" fill="black"/>
<rect x="20.5215" y="1.01605" width="1.9969" height="9.98451" transform="rotate(-15 20.5215 1.01605)" fill="black"/>
<rect x="13.792" y="3.87103" width="1.9969" height="14.9768" transform="rotate(-30 13.792 3.87103)" fill="black"/>
<rect x="8.03223" y="8.37036" width="1.9969" height="9.98451" transform="rotate(-45 8.03223 8.37036)" fill="black"/>
<rect x="3.63184" y="14.2074" width="1.9969" height="14.9768" transform="rotate(-60 3.63184 14.2074)" fill="black"/>
<rect x="0.891602" y="20.9844" width="1.9969" height="9.98451" transform="rotate(-75 0.891602 20.9844)" fill="black"/>
<rect y="28.2394" width="1.9969" height="14.9768" transform="rotate(-90 0 28.2394)" fill="black"/>
<rect x="1.01562" y="35.4782" width="1.9969" height="9.98451" transform="rotate(-105 1.01562 35.4782)" fill="black"/>
<rect x="3.87109" y="42.2074" width="1.9969" height="14.9768" transform="rotate(-120 3.87109 42.2074)" fill="black"/>
<rect x="8.37012" y="47.9683" width="1.9969" height="9.98451" transform="rotate(-135 8.37012 47.9683)" fill="black"/>
<rect x="14.207" y="52.3684" width="1.9969" height="14.9768" transform="rotate(-150 14.207 52.3684)" fill="black"/>
<rect x="20.9844" y="55.1079" width="1.9969" height="9.98451" transform="rotate(-165 20.9844 55.1079)" fill="black"/>
<rect x="28.2393" y="56" width="1.9969" height="14.9768" transform="rotate(180 28.2393 56)" fill="black"/>
<rect x="35.4785" y="54.9839" width="1.9969" height="9.98451" transform="rotate(165 35.4785 54.9839)" fill="black"/>
<rect x="42.207" y="52.129" width="1.9969" height="14.9768" transform="rotate(150 42.207 52.129)" fill="black"/>
<rect x="47.9678" y="47.6297" width="1.9969" height="9.98451" transform="rotate(135 47.9678 47.6297)" fill="black"/>
<rect x="52.3682" y="41.7926" width="1.9969" height="14.9768" transform="rotate(120 52.3682 41.7926)" fill="black"/>
<rect x="55.1074" y="35.0157" width="1.9969" height="9.98451" transform="rotate(105 55.1074 35.0157)" fill="black"/>
<rect x="56" y="27.7605" width="1.9969" height="14.9768" transform="rotate(90 56 27.7605)" fill="black"/>
<rect x="54.9844" y="20.5218" width="1.9969" height="9.98452" transform="rotate(75 54.9844 20.5218)" fill="black"/>
<rect x="52.1289" y="13.7926" width="1.9969" height="14.9768" transform="rotate(60 52.1289 13.7926)" fill="black"/>
<rect x="47.6299" y="8.03165" width="1.9969" height="9.98452" transform="rotate(45 47.6299 8.03165)" fill="black"/>
<rect x="41.792" y="3.63153" width="1.9969" height="14.9768" transform="rotate(30 41.792 3.63153)" fill="black"/>
<rect x="35.0156" y="0.89209" width="1.9969" height="9.98452" transform="rotate(15 35.0156 0.89209)" fill="black"/>
</svg>
