<svg width="18" height="18" viewBox="0 0 18 18" fill="none" xmlns="http://www.w3.org/2000/svg">
<path d="M9.9517 2.75173C10.1767 2.52677 10.4819 2.40039 10.8001 2.40039C11.1183 2.40039 11.4235 2.52677 11.6485 2.75173L17.0485 8.15173C17.2735 8.37677 17.3998 8.68194 17.3998 9.00013C17.3998 9.31833 17.2735 9.6235 17.0485 9.84853L11.6485 15.2485C11.4222 15.4671 11.1191 15.5881 10.8044 15.5853C10.4898 15.5826 10.1888 15.4564 9.96632 15.2339C9.74383 15.0114 9.61762 14.7105 9.61489 14.3958C9.61216 14.0812 9.73311 13.7781 9.9517 13.5517L13.2001 10.2001H1.8001C1.48184 10.2001 1.17661 10.0737 0.95157 9.84866C0.726526 9.62362 0.600098 9.31839 0.600098 9.00013C0.600098 8.68187 0.726526 8.37665 0.95157 8.15161C1.17661 7.92656 1.48184 7.80013 1.8001 7.80013H13.2001L9.9517 4.44853C9.72673 4.2235 9.60035 3.91833 9.60035 3.60013C9.60035 3.28194 9.72673 2.97677 9.9517 2.75173Z" fill="white"/>
</svg>
