<svg width="19" height="18" viewBox="0 0 19 18" fill="none" xmlns="http://www.w3.org/2000/svg">
<path d="M10.4512 2.7516C10.6762 2.52663 10.9814 2.40025 11.2996 2.40025C11.6178 2.40025 11.923 2.52663 12.148 2.7516L17.548 8.1516C17.773 8.37663 17.8994 8.6818 17.8994 9C17.8994 9.31819 17.773 9.62336 17.548 9.8484L12.148 15.2484C11.9217 15.467 11.6186 15.5879 11.3039 15.5852C10.9893 15.5825 10.6883 15.4563 10.4658 15.2338C10.2433 15.0113 10.1171 14.7103 10.1144 14.3957C10.1117 14.081 10.2326 13.7779 10.4512 13.5516L13.6996 10.2H2.29961C1.98135 10.2 1.67612 10.0736 1.45108 9.84852C1.22604 9.62348 1.09961 9.31826 1.09961 9C1.09961 8.68174 1.22604 8.37651 1.45108 8.15147C1.67612 7.92643 1.98135 7.8 2.29961 7.8H13.6996L10.4512 4.4484C10.2262 4.22336 10.0999 3.91819 10.0999 3.6C10.0999 3.2818 10.2262 2.97663 10.4512 2.7516Z" fill="black"/>
</svg>
